<svg xmlns="http://www.w3.org/2000/svg" viewBox="0 0 512 512">
  <defs>
    <linearGradient id="g" x1="0" y1="0" x2="1" y2="1">
      <stop offset="0" stop-color="#0f0f12"/>
      <stop offset="1" stop-color="#08080a"/>
    </linearGradient>
    <filter id="n" x="-20%" y="-20%" width="140%" height="140%">
      <feTurbulence type="fractalNoise" baseFrequency="0.8" numOctaves="3" stitchTiles="stitch"/>
      <feColorMatrix type="matrix" values="
        1 0 0 0 0
        0 1 0 0 0
        0 0 1 0 0
        0 0 0 0.22 0"/>
      <feComposite operator="in" in2="SourceGraphic"/>
    </filter>
  </defs>
  <rect width="512" height="512" rx="96" fill="url(#g)"/>
  <g opacity="0.85" filter="url(#n)">
    <rect width="512" height="512" rx="96" fill="#ffffff"/>
  </g>
  <g>
    <path d="M118 150h142c38 0 66 7 84 22 18 14 27 34 27 59 0 27-10 48-30 63-20 15-50 22-90 22h-54v86h-79V150zm79 63v40h48c10 0 18-2 23-6 5-4 8-10 8-17 0-12-10-18-30-18h-49z" fill="#e4e4ea"/>
    <path d="M302 150h86c17 0 33 3 47 10 14 7 25 17 33 31 8 14 12 31 12 52 0 33-10 59-30 78-20 19-49 28-88 28h-60V150zm78 63v122h7c16 0 28-5 36-14 8-10 12-24 12-44 0-21-4-37-13-47-9-11-22-16-40-16h-2z" fill="#00d4aa"/>
    <path d="M190 356h148v18H190z" fill="#2a2a33"/>
  </g>
</svg>

